<mxfile host="app.diagrams.net" agent="Mozilla/5.0 (Windows NT 10.0; Win64; x64) AppleWebKit/537.36 (KHTML, like Gecko) Chrome/129.0.0.0 Safari/537.36" version="24.7.17">
  <diagram name="Page-1" id="GDFZYWs9rNmzwwzfr6Hf">
    <mxGraphModel dx="1222" dy="723" grid="1" gridSize="10" guides="1" tooltips="1" connect="1" arrows="1" fold="1" page="1" pageScale="1" pageWidth="850" pageHeight="1100" math="0" shadow="0">
      <root>
        <mxCell id="0" />
        <mxCell id="1" parent="0" />
        <mxCell id="HQTMnpz0rKwvaZ5pU-yJ-9" value="" style="edgeStyle=orthogonalEdgeStyle;rounded=0;orthogonalLoop=1;jettySize=auto;html=1;" edge="1" parent="1" source="HQTMnpz0rKwvaZ5pU-yJ-2" target="HQTMnpz0rKwvaZ5pU-yJ-7">
          <mxGeometry relative="1" as="geometry" />
        </mxCell>
        <mxCell id="HQTMnpz0rKwvaZ5pU-yJ-13" value="" style="edgeStyle=orthogonalEdgeStyle;rounded=0;orthogonalLoop=1;jettySize=auto;html=1;" edge="1" parent="1" source="HQTMnpz0rKwvaZ5pU-yJ-2" target="HQTMnpz0rKwvaZ5pU-yJ-12">
          <mxGeometry relative="1" as="geometry" />
        </mxCell>
        <mxCell id="HQTMnpz0rKwvaZ5pU-yJ-18" value="" style="rounded=0;orthogonalLoop=1;jettySize=auto;html=1;strokeColor=default;edgeStyle=orthogonalEdgeStyle;" edge="1" parent="1" source="HQTMnpz0rKwvaZ5pU-yJ-2" target="HQTMnpz0rKwvaZ5pU-yJ-16">
          <mxGeometry relative="1" as="geometry" />
        </mxCell>
        <mxCell id="HQTMnpz0rKwvaZ5pU-yJ-31" value="" style="edgeStyle=orthogonalEdgeStyle;rounded=0;orthogonalLoop=1;jettySize=auto;html=1;" edge="1" parent="1" source="HQTMnpz0rKwvaZ5pU-yJ-2" target="HQTMnpz0rKwvaZ5pU-yJ-30">
          <mxGeometry relative="1" as="geometry" />
        </mxCell>
        <mxCell id="HQTMnpz0rKwvaZ5pU-yJ-36" value="" style="edgeStyle=orthogonalEdgeStyle;rounded=0;orthogonalLoop=1;jettySize=auto;html=1;" edge="1" parent="1" source="HQTMnpz0rKwvaZ5pU-yJ-2" target="HQTMnpz0rKwvaZ5pU-yJ-34">
          <mxGeometry relative="1" as="geometry" />
        </mxCell>
        <mxCell id="HQTMnpz0rKwvaZ5pU-yJ-40" value="" style="edgeStyle=orthogonalEdgeStyle;rounded=0;orthogonalLoop=1;jettySize=auto;html=1;" edge="1" parent="1" source="HQTMnpz0rKwvaZ5pU-yJ-2" target="HQTMnpz0rKwvaZ5pU-yJ-21">
          <mxGeometry relative="1" as="geometry" />
        </mxCell>
        <mxCell id="HQTMnpz0rKwvaZ5pU-yJ-2" value="&lt;font style=&quot;font-size: 21px;&quot;&gt;ماركات السيارات&lt;/font&gt;" style="rounded=1;whiteSpace=wrap;html=1;" vertex="1" parent="1">
          <mxGeometry x="560" y="150" width="140" height="70" as="geometry" />
        </mxCell>
        <mxCell id="HQTMnpz0rKwvaZ5pU-yJ-11" style="edgeStyle=orthogonalEdgeStyle;rounded=0;orthogonalLoop=1;jettySize=auto;html=1;" edge="1" parent="1" source="HQTMnpz0rKwvaZ5pU-yJ-7" target="HQTMnpz0rKwvaZ5pU-yJ-10">
          <mxGeometry relative="1" as="geometry" />
        </mxCell>
        <mxCell id="HQTMnpz0rKwvaZ5pU-yJ-7" value="&lt;font style=&quot;font-size: 20px;&quot;&gt;&lt;b&gt;mazda-مازدا&lt;/b&gt;&lt;/font&gt;" style="rounded=0;whiteSpace=wrap;html=1;" vertex="1" parent="1">
          <mxGeometry x="1010" y="280" width="120" height="60" as="geometry" />
        </mxCell>
        <mxCell id="HQTMnpz0rKwvaZ5pU-yJ-10" value="&lt;font style=&quot;font-size: 30px;&quot;&gt;اليابان&lt;/font&gt;" style="shape=hexagon;perimeter=hexagonPerimeter2;whiteSpace=wrap;html=1;fixedSize=1;" vertex="1" parent="1">
          <mxGeometry x="1070" y="400" width="120" height="80" as="geometry" />
        </mxCell>
        <mxCell id="HQTMnpz0rKwvaZ5pU-yJ-15" value="" style="edgeStyle=orthogonalEdgeStyle;rounded=0;orthogonalLoop=1;jettySize=auto;html=1;" edge="1" parent="1" source="HQTMnpz0rKwvaZ5pU-yJ-12" target="HQTMnpz0rKwvaZ5pU-yJ-14">
          <mxGeometry relative="1" as="geometry" />
        </mxCell>
        <mxCell id="HQTMnpz0rKwvaZ5pU-yJ-12" value="&lt;font style=&quot;font-size: 20px;&quot;&gt;&lt;b&gt;&amp;nbsp; ford - فورد&lt;/b&gt;&lt;/font&gt;" style="rounded=0;whiteSpace=wrap;html=1;" vertex="1" parent="1">
          <mxGeometry x="850" y="280" width="120" height="60" as="geometry" />
        </mxCell>
        <mxCell id="HQTMnpz0rKwvaZ5pU-yJ-14" value="&lt;font style=&quot;font-size: 30px;&quot;&gt;أمريكا&lt;/font&gt;" style="shape=hexagon;perimeter=hexagonPerimeter2;whiteSpace=wrap;html=1;fixedSize=1;rounded=0;" vertex="1" parent="1">
          <mxGeometry x="900" y="400" width="120" height="80" as="geometry" />
        </mxCell>
        <mxCell id="HQTMnpz0rKwvaZ5pU-yJ-20" value="" style="edgeStyle=orthogonalEdgeStyle;rounded=0;orthogonalLoop=1;jettySize=auto;html=1;" edge="1" parent="1" source="HQTMnpz0rKwvaZ5pU-yJ-16" target="HQTMnpz0rKwvaZ5pU-yJ-19">
          <mxGeometry relative="1" as="geometry" />
        </mxCell>
        <mxCell id="HQTMnpz0rKwvaZ5pU-yJ-16" value="&lt;b&gt;&lt;font style=&quot;font-size: 22px;&quot;&gt;Jeep - جيب&lt;/font&gt;&lt;/b&gt;" style="rounded=0;whiteSpace=wrap;html=1;" vertex="1" parent="1">
          <mxGeometry x="690" y="280" width="120" height="60" as="geometry" />
        </mxCell>
        <mxCell id="HQTMnpz0rKwvaZ5pU-yJ-19" value="&lt;font style=&quot;font-size: 30px;&quot;&gt;أمريكا&lt;/font&gt;" style="shape=hexagon;perimeter=hexagonPerimeter2;whiteSpace=wrap;html=1;fixedSize=1;rounded=0;" vertex="1" parent="1">
          <mxGeometry x="730" y="400" width="120" height="80" as="geometry" />
        </mxCell>
        <mxCell id="HQTMnpz0rKwvaZ5pU-yJ-27" value="" style="edgeStyle=orthogonalEdgeStyle;rounded=0;orthogonalLoop=1;jettySize=auto;html=1;" edge="1" parent="1" source="HQTMnpz0rKwvaZ5pU-yJ-21" target="HQTMnpz0rKwvaZ5pU-yJ-26">
          <mxGeometry relative="1" as="geometry" />
        </mxCell>
        <mxCell id="HQTMnpz0rKwvaZ5pU-yJ-21" value="&lt;font size=&quot;1&quot; style=&quot;&quot;&gt;&lt;b style=&quot;font-size: 20px;&quot;&gt;Hyundai - هيونداي&lt;/b&gt;&lt;/font&gt;" style="rounded=0;whiteSpace=wrap;html=1;" vertex="1" parent="1">
          <mxGeometry x="440" y="280" width="120" height="60" as="geometry" />
        </mxCell>
        <mxCell id="HQTMnpz0rKwvaZ5pU-yJ-26" value="&lt;font style=&quot;font-size: 22px;&quot;&gt;&lt;b&gt;كوريا الجنوبية&lt;/b&gt;&lt;/font&gt;" style="shape=hexagon;perimeter=hexagonPerimeter2;whiteSpace=wrap;html=1;fixedSize=1;rounded=0;" vertex="1" parent="1">
          <mxGeometry x="410" y="400" width="120" height="80" as="geometry" />
        </mxCell>
        <mxCell id="HQTMnpz0rKwvaZ5pU-yJ-33" value="" style="edgeStyle=orthogonalEdgeStyle;rounded=0;orthogonalLoop=1;jettySize=auto;html=1;" edge="1" parent="1" source="HQTMnpz0rKwvaZ5pU-yJ-30" target="HQTMnpz0rKwvaZ5pU-yJ-32">
          <mxGeometry relative="1" as="geometry" />
        </mxCell>
        <mxCell id="HQTMnpz0rKwvaZ5pU-yJ-30" value="&lt;b&gt;&lt;font style=&quot;font-size: 17px;&quot;&gt;Toyota - تويوتا&lt;/font&gt;&lt;/b&gt;" style="rounded=0;whiteSpace=wrap;html=1;" vertex="1" parent="1">
          <mxGeometry x="270" y="280" width="120" height="60" as="geometry" />
        </mxCell>
        <mxCell id="HQTMnpz0rKwvaZ5pU-yJ-32" value="&lt;font style=&quot;font-size: 30px;&quot;&gt;اليابان&lt;/font&gt;" style="shape=hexagon;perimeter=hexagonPerimeter2;whiteSpace=wrap;html=1;fixedSize=1;rounded=0;" vertex="1" parent="1">
          <mxGeometry x="230" y="400" width="120" height="80" as="geometry" />
        </mxCell>
        <mxCell id="HQTMnpz0rKwvaZ5pU-yJ-38" value="" style="edgeStyle=orthogonalEdgeStyle;rounded=0;orthogonalLoop=1;jettySize=auto;html=1;" edge="1" parent="1" source="HQTMnpz0rKwvaZ5pU-yJ-34" target="HQTMnpz0rKwvaZ5pU-yJ-37">
          <mxGeometry relative="1" as="geometry" />
        </mxCell>
        <mxCell id="HQTMnpz0rKwvaZ5pU-yJ-34" value="&lt;b&gt;&lt;font style=&quot;font-size: 17px;&quot;&gt;Nissan - نيسان&lt;/font&gt;&lt;/b&gt;" style="rounded=0;whiteSpace=wrap;html=1;" vertex="1" parent="1">
          <mxGeometry x="90" y="270" width="120" height="60" as="geometry" />
        </mxCell>
        <mxCell id="HQTMnpz0rKwvaZ5pU-yJ-37" value="&lt;font style=&quot;font-size: 30px;&quot;&gt;اليابان&lt;/font&gt;" style="shape=hexagon;perimeter=hexagonPerimeter2;whiteSpace=wrap;html=1;fixedSize=1;rounded=0;" vertex="1" parent="1">
          <mxGeometry x="50" y="400" width="120" height="80" as="geometry" />
        </mxCell>
        <mxCell id="HQTMnpz0rKwvaZ5pU-yJ-41" value="&lt;font style=&quot;font-size: 30px;&quot;&gt;اكرم المولد&amp;nbsp; &amp;nbsp;6\3&lt;/font&gt;" style="text;html=1;align=center;verticalAlign=middle;resizable=0;points=[];autosize=1;strokeColor=none;fillColor=none;" vertex="1" parent="1">
          <mxGeometry x="535" y="70" width="190" height="50" as="geometry" />
        </mxCell>
      </root>
    </mxGraphModel>
  </diagram>
</mxfile>
